<?xml version="1.0" encoding="utf-8"?>
<!-- Generator: Adobe Illustrator 19.0.0, SVG Export Plug-In . SVG Version: 6.00 Build 0)  -->
<svg version="1.1" id="Layer_1" xmlns="http://www.w3.org/2000/svg" xmlns:xlink="http://www.w3.org/1999/xlink" x="0px" y="0px"
	 viewBox="470 420 235 235" width="150" height="150" style="enable-background:new 470 420 235 235;" xml:space="preserve">
<style type="text/css">
	.st0{fill:#2D2D2D;}
	.st0{fill:#2D2D2D;}
	.st1{clip-path:url(#XMLID_28_);fill:url(#XMLID_29_);}
</style>
<g id="XMLID_2_">
	
	<g id="XMLID_3_">
		<g id="XMLID_6_">
			<defs>
				<path id="XMLID_7_" d="M514.5,587.5l50.3-29.6c5.2,2.2,9.1,2.6,9.1,2.6l-52.6,36C518.8,593.6,516.5,590.6,514.5,587.5
					 M504.8,567.2c10.8-5.3,37.6-16.4,45.4-19.6c2.1,2.3,4.3,4.2,6.5,5.8l-47.8,23.9C507.2,574,505.9,570.7,504.8,567.2
					 M500.5,542.2c9.5-1.9,31.2-6.3,41.6-8.4c0.9,2.7,2,5.1,3.3,7.3c-24.2,6.5-37.5,12-43.5,14.9
					C501.1,551.4,500.6,546.8,500.5,542.2 M586.9,454c47.6,0,86.4,38.8,86.4,86.4c0,40.2-27.6,74.1-64.8,83.7l-6.5-21.3l-2.4,23.1
					c-2.8,0.4-5.7,0.7-8.7,0.8l4.5-35.5l-16.1,35.3c-3.7-0.3-7.2-0.9-10.8-1.6l27.2-46.8l-38.9,43.3c-3.8-1.4-7.4-3.1-10.9-4.9
					c4.4-4.2,12.4-11.8,24-22.5c18.6-17.2,41.9-34.9,41.9-34.9c-16.4,1.7-26.1,11.9-26.1,11.9l-48.3,40.2c-3.1-2.2-6.1-4.6-8.9-7.1
					l53.5-40.5c15.6-11.8,31.9-16.7,52-10.4c20.1,6.3,9.7,22.9,9.7,22.9s22.7-16.1,13.8-36.1c-8.9-20-30.7-25-30.7-25
					s-27.3,18.4-37.5,25.6c-10.2,7.2-21.3,2.4-25.6-2.6c-4.2-5.1-4.5-14.4-4.5-14.4c-21.5-0.3-44.9,2.7-57.6,4.7
					c0.7-5,1.8-9.8,3.4-14.4c19.1-2.5,69.1-7.4,99.4,6.4l16.9-12.5c0,0-46.9-37.4-109.1-9.8C526.7,471.6,554.8,454,586.9,454
					 M516.6,470c-18.8,18.8-29.1,43.7-29.1,70.3s10.3,51.5,29.1,70.3s43.7,29.1,70.3,29.1c26.6,0,51.5-10.3,70.3-29.1
					c18.8-18.8,29.1-43.7,29.1-70.3S676,488.8,657.2,470c-18.8-18.8-43.7-29.1-70.3-29.1C560.3,440.9,535.3,451.3,516.6,470"/>
			</defs>
			<clipPath id="XMLID_28_">
				<use xlink:href="#XMLID_7_"  style="overflow:visible;"/>
			</clipPath>
			
				<linearGradient id="XMLID_29_" gradientUnits="userSpaceOnUse" x1="420.735" y1="1079.1605" x2="423.135" y2="1079.1605" gradientTransform="matrix(0 213.8005 213.8005 0 -230138.1406 -89516.2188)">
				<!-- <stop  offset="0" style="stop-color:#26CCF9"/> -->
				<!-- <stop  offset="1" style="stop-color:#0E7CB4"/> -->
				<stop  offset="0" style="stop-color:#26f9c4"/>
				<stop  offset="1" style="stop-color:#0eb4a9"/>
			</linearGradient>
			<rect id="XMLID_13_" x="487.4" y="440.9" class="st1" width="198.9" height="198.9"/>
		</g>
		<g id="XMLID_4_">
			<path id="XMLID_5_" class="st0" d="M568.9,522.1c-0.5,4,1.1,11.3,8.5,11.3c7.4,0,8.5-8.5,8.5-8.5
				C579.8,521.4,568.9,522.1,568.9,522.1"/>
		</g>
	</g>
</g>
</svg>
